<svg width="16" height="16" viewBox="0 0 16 16" fill="none" xmlns="http://www.w3.org/2000/svg">
<path d="M11.2966 13.6C11.19 13.6 11.0966 13.5733 11.0033 13.52L8.0033 11.5733L5.0033 13.52C4.81663 13.64 4.57663 13.6267 4.4033 13.5067C4.22997 13.3733 4.14997 13.1467 4.2033 12.9333L5.14997 9.6L2.33663 7.22666C2.17663 7.09333 2.10997 6.86667 2.17663 6.65334C2.2433 6.45334 2.42997 6.30666 2.6433 6.28L6.01664 6.04001L7.53663 2.72C7.62997 2.53334 7.81664 2.41333 8.01663 2.41333C8.22997 2.41333 8.41664 2.53334 8.49664 2.72L10.0166 6.04001L13.39 6.28C13.6033 6.29333 13.79 6.44 13.8566 6.65334C13.9233 6.85334 13.8566 7.07999 13.6966 7.22666L10.8833 9.6L11.83 12.9333C11.8966 13.1467 11.8166 13.3733 11.63 13.5067C11.5233 13.56 11.4166 13.6 11.2966 13.6ZM8.0033 10.4C8.10997 10.4 8.2033 10.4267 8.29664 10.48L10.4033 11.84L9.74997 9.53333C9.69664 9.33333 9.7633 9.12 9.9233 8.98667L11.99 7.24001L9.61663 7.06667C9.41664 7.05333 9.25664 6.93333 9.1633 6.75999L8.0033 4.21333L6.8433 6.75999C6.7633 6.93333 6.58997 7.05333 6.38997 7.06667L4.01664 7.24001L6.0833 8.98667C6.2433 9.12 6.30997 9.33333 6.25663 9.53333L5.6033 11.84L7.70997 10.48C7.8033 10.4267 7.89663 10.4 8.0033 10.4Z" fill="#F6F6F8"/>
<path d="M8.0033 10.4C8.10997 10.4 8.2033 10.4267 8.29664 10.48L10.4033 11.84L9.74997 9.53333C9.69664 9.33333 9.7633 9.12 9.9233 8.98667L11.99 7.24001L9.61663 7.06667C9.41664 7.05333 9.25664 6.93333 9.1633 6.75999L8.0033 4.21333L6.8433 6.75999C6.7633 6.93333 6.58997 7.05333 6.38997 7.06667L4.01664 7.24001L6.0833 8.98667C6.2433 9.12 6.30997 9.33333 6.25663 9.53333L5.6033 11.84L7.70997 10.48C7.8033 10.4267 7.89663 10.4 8.0033 10.4Z" fill="#F6F6F8"/>
</svg>
