<svg width="24" height="24" viewBox="0 0 24 24" fill="none" xmlns="http://www.w3.org/2000/svg">
<path d="M0 4C0 1.79086 1.79086 0 4 0H20C22.2091 0 24 1.79086 24 4V20C24 22.2091 22.2091 24 20 24H4C1.79086 24 0 22.2091 0 20V4Z" fill="#3858FF"/>
<path d="M12.0051 2.80005C6.92512 2.80005 2.80511 6.92005 2.80511 12C2.80511 17.0801 6.92512 21.2001 12.0051 21.2001C17.0851 21.2001 21.2051 17.0801 21.2051 12C21.2051 6.92005 17.0851 2.80005 12.0051 2.80005ZM12.0051 4.40005C16.2051 4.40005 19.6051 7.80005 19.6051 12C19.6051 13.0601 19.3851 14.08 18.9851 15.02L14.4851 12.8C14.7651 11.9 14.5451 10.8801 13.8451 10.1601C13.1251 9.44006 12.1051 9.24004 11.2051 9.52004L9.58512 6.24004C9.44512 5.94004 9.08512 5.82006 8.78512 5.96006C8.48512 6.10006 8.36511 6.46006 8.50512 6.76006L10.1651 10.12C10.1651 10.12 10.1651 10.12 10.1451 10.14L10.1251 10.1601L5.58512 7.90005C6.94512 5.80005 9.30511 4.40005 12.0051 4.40005ZM11.1451 11.14C11.3851 10.9 11.6851 10.7801 12.0051 10.7801C12.3251 10.7801 12.6251 10.9 12.8651 11.14C13.3451 11.62 13.3451 12.3801 12.8651 12.8601C12.3851 13.3401 11.6251 13.3401 11.1451 12.8601C10.6851 12.3801 10.6851 11.62 11.1451 11.14ZM16.0851 18.4001L15.0451 16.2801C14.9051 15.9801 14.5451 15.8601 14.2451 16C13.9451 16.14 13.8251 16.5 13.9651 16.8L15.0251 18.94C14.1051 19.34 13.0651 19.5801 12.0051 19.5801C7.80511 19.5801 4.40511 16.1801 4.40511 11.9801C4.40511 10.9201 4.62511 9.90006 5.02511 8.96006L9.52511 11.1801C9.24511 12.0801 9.46512 13.1 10.1651 13.82C10.6651 14.32 11.3451 14.5801 12.0051 14.5801C12.6651 14.5801 13.3451 14.32 13.8451 13.82L13.8651 13.8L18.4051 16.0601C17.8251 17.0001 17.0251 17.8 16.0851 18.4001ZM14.3051 14.7001C14.4251 14.8201 14.5051 15 14.5051 15.2001C14.5051 15.38 14.4251 15.5601 14.3051 15.7001C14.1851 15.84 13.9851 15.9001 13.8051 15.9001C13.6251 15.9001 13.4451 15.8201 13.3051 15.7001C13.1651 15.58 13.1051 15.38 13.1051 15.2001C13.1051 15.0201 13.1851 14.84 13.3051 14.7001C13.5651 14.4401 14.0451 14.4401 14.3051 14.7001Z" fill="white"/>
</svg>
